<svg width="50" height="36" viewBox="0 0 50 36" fill="none" xmlns="http://www.w3.org/2000/svg">
<path fill-rule="evenodd" clip-rule="evenodd" d="M46.22 35.53H3.78C2.84379 35.53 1.94592 35.1581 1.28391 34.4961C0.62191 33.8341 0.25 32.9362 0.25 32V4C0.25 3.06379 0.62191 2.16592 1.28391 1.50391C1.94592 0.841911 2.84379 0.470001 3.78 0.470001H46.22C47.1562 0.470001 48.0541 0.841911 48.7161 1.50391C49.3781 2.16592 49.75 3.06379 49.75 4V32C49.75 32.9362 49.3781 33.8341 48.7161 34.4961C48.0541 35.1581 47.1562 35.53 46.22 35.53ZM25 23L5.73 9.61V33.47H44.23V9.61L25 23ZM43.29 2.53H6.6L25 15.38C25 15.38 37.89 6.29 43.29 2.53Z" fill="black"/>
</svg>
