<svg width="45" height="45" viewBox="0 0 45 45" fill="none" xmlns="http://www.w3.org/2000/svg">
<path d="M1.77975 1.77968C-1.3652 4.91451 -0.424749 10.9516 5.29885 16.6752C11.0224 22.3988 22.4899 22.4999 22.4899 22.4999C22.4899 22.4999 22.3887 11.0224 16.6651 5.30889C10.9415 -0.404594 4.91458 -1.36527 1.77975 1.77968Z" fill="#070707"/>
<path d="M22.5 22.5C22.5 22.5 22.6011 33.9775 28.3247 39.691C34.0483 45.4045 40.0753 46.3551 43.2202 43.2101C46.3652 40.0652 45.4247 34.0483 39.7011 28.3146C33.9775 22.5809 22.5 22.5 22.5 22.5Z" fill="#070707"/>
<path d="M43.2203 1.77971C40.0754 -1.36523 34.0484 -0.42478 28.3147 5.29882C22.581 11.0224 22.49 22.4898 22.49 22.4898C22.49 22.4898 33.9675 22.3887 39.681 16.6651C45.3945 10.9415 46.3653 4.91455 43.2203 1.77971Z" fill="#070707"/>
<path d="M1.77955 43.2202C4.91438 46.3652 10.9515 45.4247 16.6751 39.7011C22.3987 33.9775 22.4998 22.5101 22.4998 22.5101C22.4998 22.5101 11.0223 22.6112 5.30877 28.3348C-0.404716 34.0584 -1.36539 40.0753 1.77955 43.2202Z" fill="#070707"/>
</svg>
