<svg width="45" height="45" viewBox="0 0 45 45" fill="none" xmlns="http://www.w3.org/2000/svg">
<g clip-path="url(#clip0)">
<path d="M2.23518 2.23527C-0.840644 5.3012 0.0791356 11.2056 5.67694 16.8133C11.2747 22.421 22.4901 22.51 22.4901 22.51C22.4901 22.51 22.3912 11.2847 16.7934 5.6968C11.1956 0.108892 5.30111 -0.840559 2.23518 2.23527Z" stroke="#070707" stroke-miterlimit="10"/>
<path d="M22.5 22.5C22.5 22.5 22.5989 33.7253 28.1967 39.3132C33.7945 44.9011 39.689 45.8308 42.7648 42.7549C45.8407 39.6791 44.9209 33.7846 39.3231 28.1868C33.7253 22.589 22.5 22.5 22.5 22.5Z" stroke="#070707" stroke-miterlimit="10"/>
<path d="M42.7648 2.23516C39.689 -0.84066 33.7945 0.0791203 28.1967 5.67692C22.5989 11.2747 22.5 22.4901 22.5 22.4901C22.5 22.4901 33.7253 22.3912 39.3132 16.7934C44.9011 11.1956 45.8407 5.3011 42.7648 2.23516Z" stroke="#070707" stroke-miterlimit="10"/>
<path d="M2.2353 42.7648C5.30123 45.8407 11.2056 44.9209 16.8034 39.3231C22.4012 33.7253 22.5001 22.5099 22.5001 22.5099C22.5001 22.5099 11.2749 22.6088 5.68695 28.2066C0.0990352 33.8044 -0.840525 39.689 2.2353 42.7648Z" stroke="#070707" stroke-miterlimit="10"/>
</g>
<defs>
<clipPath id="clip0">
<rect width="45" height="45" fill="white"/>
</clipPath>
</defs>
</svg>
