<svg width="49" height="49" viewBox="0 0 49 49" fill="none" xmlns="http://www.w3.org/2000/svg">
<path d="M23.5299 0.240377C17.9497 0.459533 12.6205 2.72667 8.47411 6.64541C4.32772 10.5642 1.62798 15.8851 0.846902 21.6781C0.0658193 27.471 1.25309 33.3673 4.20115 38.336C7.1492 43.3047 11.6704 47.0297 16.9744 48.8597C18.1663 49.1258 18.5766 48.3172 18.5766 47.6621V42.9844C11.9039 44.4891 10.5557 40.0366 10.5557 40.0366C9.47121 37.1399 7.90804 36.3722 7.90804 36.3722C5.75869 34.8266 8.07413 34.8573 8.07413 34.8573C8.83556 34.971 9.56189 35.2664 10.1971 35.7207C10.8323 36.175 11.3594 36.7761 11.7378 37.4776C13.8578 41.2955 17.3066 40.1901 18.6646 39.6067C18.772 38.3404 19.3093 37.1565 20.1789 36.2698C14.8837 35.6352 9.32466 33.496 9.32466 23.9871C9.2701 21.497 10.1345 19.0808 11.7378 17.2418C10.999 15.0754 11.0794 12.6949 11.9625 10.5886C11.9625 10.5886 14.0044 9.91306 18.518 13.1475C22.4186 12.0234 26.5365 12.0234 30.4372 13.1475C34.9899 9.94377 36.9829 10.5886 36.9829 10.5886C37.8642 12.6769 37.9481 15.0395 37.2174 17.1906C38.8284 19.007 39.707 21.4055 39.6696 23.8847C39.6696 33.4858 34.0911 35.6148 28.7958 36.1675C29.3619 36.7695 29.8 37.4903 30.0812 38.2824C30.3624 39.0745 30.4804 39.92 30.4274 40.7633V47.6109C30.4274 48.266 30.8084 49.0542 32.0199 48.8085C37.4317 46.8827 42.0022 42.9823 44.8971 37.8192C47.792 32.656 48.8183 26.5744 47.7887 20.6843C46.7591 14.7942 43.7422 9.4884 39.2887 5.73522C34.8352 1.98204 29.242 0.0317765 23.5299 0.240377Z" fill="black"/>
</svg>
