<svg width="50" height="50" viewBox="0 0 50 50" fill="none" xmlns="http://www.w3.org/2000/svg">
<path d="M24.9999 5.23999C31.4499 5.23999 32.2199 5.23999 34.7499 5.38999C41.2799 5.68999 44.3399 8.78999 44.6299 15.28C44.7499 17.81 44.7699 18.58 44.7699 25.02C44.7699 31.46 44.7699 32.24 44.6299 34.75C44.3399 41.24 41.2899 44.34 34.7499 44.64C32.2099 44.76 31.4499 44.79 24.9999 44.79C18.5499 44.79 17.7799 44.79 15.2599 44.64C8.7099 44.34 5.6799 41.23 5.3799 34.75C5.2599 32.22 5.2299 31.46 5.2299 25.01C5.2299 18.56 5.2299 17.79 5.3799 15.27C5.6799 8.78999 8.7199 5.68999 15.2599 5.38999C17.8099 5.26999 18.5799 5.23999 24.9999 5.23999ZM24.9999 0.899994C18.4199 0.899994 17.6399 0.899994 15.0599 1.04999C6.3099 1.44999 1.4399 6.30999 1.0599 15.05C0.899902 17.65 0.899902 18.43 0.899902 25C0.899902 31.57 0.899902 32.37 1.0499 34.92C1.4499 43.67 6.3099 48.54 15.0499 48.92C17.6299 49.04 18.4399 49.07 24.9899 49.07C31.5399 49.07 32.3599 49.07 34.9899 48.92C43.7399 48.52 48.6099 43.66 48.9899 34.92C49.0999 32.34 49.1299 31.52 49.1299 24.97C49.1299 18.42 49.1299 17.61 48.9899 15.03C48.5899 6.31999 43.7299 1.43999 34.9299 1.02999C32.3799 0.899994 31.5599 0.899994 24.9999 0.899994ZM24.9999 12.64C22.5533 12.642 20.1623 13.3694 18.1292 14.7303C16.0961 16.0911 14.5121 18.0244 13.5777 20.2854C12.6433 22.5465 12.4003 25.0339 12.8795 27.4331C13.3588 29.8322 14.5387 32.0354 16.2701 33.764C18.0014 35.4925 20.2065 36.6689 22.6064 37.1442C25.0064 37.6196 27.4934 37.3726 29.7529 36.4345C32.0125 35.4965 33.9431 33.9094 35.3007 31.8741C36.6583 29.8387 37.3819 27.4465 37.3799 25C37.3786 23.3755 37.0573 21.7673 36.4345 20.267C35.8116 18.7667 34.8993 17.4037 33.7497 16.256C32.6002 15.1083 31.2358 14.1982 29.7345 13.5778C28.2332 12.9573 26.6244 12.6387 24.9999 12.64ZM24.9999 33.05C23.4177 33.05 21.8709 32.5808 20.5553 31.7018C19.2397 30.8227 18.2144 29.5733 17.6089 28.1115C17.0034 26.6497 16.8449 25.0411 17.1536 23.4893C17.4623 21.9374 18.2242 20.512 19.343 19.3931C20.4619 18.2743 21.8873 17.5124 23.4392 17.2037C24.991 16.895 26.5996 17.0535 28.0614 17.659C29.5232 18.2645 30.7726 19.2898 31.6517 20.6054C32.5307 21.921 32.9999 23.4677 32.9999 25.05C32.9999 27.1717 32.157 29.2066 30.6568 30.7068C29.1565 32.2071 27.1216 33.05 24.9999 33.05ZM37.8899 9.24999C37.3163 9.24802 36.7551 9.41617 36.2771 9.73318C35.7991 10.0502 35.4258 10.5018 35.2045 11.031C34.9832 11.5601 34.9237 12.143 35.0337 12.7059C35.1437 13.2689 35.4181 13.7865 35.8223 14.1935C36.2264 14.6005 36.7422 14.8784 37.3043 14.9923C37.8665 15.1061 38.4498 15.0507 38.9804 14.833C39.5111 14.6154 39.9653 14.2452 40.2856 13.7694C40.6059 13.2936 40.7779 12.7336 40.7799 12.16C40.7812 11.7792 40.7075 11.4018 40.563 11.0494C40.4185 10.6971 40.2059 10.3767 39.9376 10.1065C39.6692 9.83623 39.3503 9.62152 38.9989 9.47457C38.6476 9.32761 38.2707 9.25131 37.8899 9.24999Z" fill="black"/>
</svg>
