<svg width="302" height="137" viewBox="0 0 302 137" fill="none" xmlns="http://www.w3.org/2000/svg">
<path d="M151 136C233.843 136 301 105.779 301 68.5C301 31.2208 233.843 1 151 1C68.1573 1 1 31.2208 1 68.5C1 105.779 68.1573 136 151 136Z" stroke="#EF1100" stroke-width="2" stroke-miterlimit="10"/>
<path d="M26.5721 59.9632H30.1048V60.1543C29.708 60.1192 29.3129 60.2379 29.0008 60.4861C28.7483 60.8759 28.6384 61.3414 28.6897 61.8033V78.2535L14.2678 62.9094V76.2726C14.2532 76.5876 14.2871 76.903 14.3682 77.2077C14.4043 77.3794 14.5049 77.5306 14.6492 77.63C14.9411 77.7482 15.2489 77.8228 15.5625 77.8513V78.0323H12.1V77.8513C12.7222 77.8513 13.1036 77.7407 13.2542 77.5194C13.4622 77.021 13.5415 76.4781 13.485 75.9408V63.7138C13.5134 62.8183 13.3633 61.9261 13.0434 61.0894C12.7423 60.4157 12.0398 60.0839 10.976 60.1543V59.9632H14.3682L27.8868 74.4024V61.6324C27.8868 60.9486 27.7564 60.5263 27.5155 60.3755C27.2276 60.2156 26.9009 60.139 26.5721 60.1543V59.9632Z" fill="#EF1100" stroke="#EF1100" stroke-miterlimit="10"/>
<path d="M36.5781 59.9632V60.1543C36.3088 60.1298 36.0376 60.1677 35.7852 60.2649C35.6711 60.2859 35.5642 60.3357 35.4747 60.4096C35.3851 60.4834 35.3158 60.579 35.2734 60.6872C35.1972 61.1286 35.1702 61.5771 35.1931 62.0245V75.8905C35.1688 76.3517 35.1991 76.8141 35.2834 77.2681C35.3501 77.4416 35.4741 77.5871 35.6347 77.6803C35.9295 77.8169 36.2542 77.8757 36.5781 77.8513V78.0323H31.7607V77.8513C32.3629 77.8513 32.7644 77.7306 32.8848 77.4993C33.0836 76.9948 33.1626 76.451 33.1156 75.9106V62.1854C33.1631 61.6113 33.0808 61.0339 32.8748 60.4961C32.7142 60.2347 32.3428 60.114 31.7708 60.1543V59.9632H36.5781Z" fill="#EF1100" stroke="#EF1100" stroke-miterlimit="10"/>
<path d="M53.9205 60.8782L54.5929 62.7887H54.4123C53.6169 61.9555 52.6601 61.2939 51.6005 60.8444C50.5409 60.3948 49.4008 60.1668 48.2501 60.1744C47.1648 60.1233 46.0801 60.288 45.0586 60.659C44.0371 61.0301 43.0991 61.6001 42.2987 62.3362C41.5701 63.0144 40.9918 63.8383 40.6011 64.7546C40.2104 65.6709 40.016 66.6591 40.0305 67.6554C40.0828 69.1804 40.4234 70.6817 41.0341 72.0796C41.6891 73.7248 42.7956 75.1507 44.2256 76.1922C45.7613 77.2956 47.6156 77.8643 49.5046 77.811C50.8702 77.814 52.2268 77.5897 53.5191 77.1474C54.6152 76.8315 55.6088 76.2315 56.3994 75.4079H56.55L55.2955 77.4189C53.2882 77.8613 51.9334 78.1227 51.281 78.2032C50.4714 78.2942 49.6569 78.3345 48.8422 78.3239C45.0586 78.3239 42.3589 77.4491 40.723 75.6995C39.1291 73.9864 38.2681 71.7161 38.3244 69.3748C38.3315 67.7051 38.7632 66.0648 39.5789 64.6087C40.4162 63.0848 41.674 61.8351 43.2019 61.0089C44.856 60.1037 46.717 59.6462 48.6014 59.6817C49.4826 59.6704 50.362 59.7649 51.2208 59.9632C51.8495 60.1089 52.4667 60.3005 53.0675 60.5364L53.8703 60.838L53.9205 60.8782Z" fill="#EF1100" stroke="#EF1100" stroke-miterlimit="10"/>
<path d="M57.7341 60.1744V59.9632H69.0649V62.4569H68.8843C68.7752 61.878 68.5572 61.3252 68.242 60.8279C67.8745 60.6065 67.4424 60.5177 67.0175 60.5766H61.0862V68.691H66.6061C66.9487 68.7211 67.2935 68.6658 67.6097 68.5302C67.6801 68.4797 67.7377 68.4134 67.7778 68.3365C67.8179 68.2597 67.8394 68.1745 67.8405 68.0877H68.0212V69.7871H67.8405C67.8317 69.6911 67.8009 69.5985 67.7504 69.5165C67.6999 69.4345 67.6311 69.3654 67.5495 69.3145C67.2834 69.2157 66.9995 69.1746 66.7165 69.1938H61.0862V74.7744C61.0511 75.3901 61.1293 76.007 61.317 76.5944C61.3749 76.762 61.4728 76.9129 61.6023 77.0338C61.7317 77.1547 61.8888 77.2421 62.0597 77.2882C62.5631 77.4031 63.0794 77.4505 63.5952 77.4289H66.7666C67.414 77.4542 68.0623 77.4206 68.7036 77.3284C68.9777 77.2602 69.2278 77.1175 69.4262 76.9161C69.6885 76.509 69.8439 76.0421 69.8778 75.5587H70.0585V78.0323H57.7341V77.8513C58.0629 77.8442 58.3856 77.7617 58.6775 77.6099C58.8983 77.4792 58.9987 77.1273 58.9987 76.6044V61.9742C59.0287 61.5018 58.9709 61.0278 58.8281 60.5766C58.7177 60.3252 58.3463 60.1744 57.7341 60.1744Z" fill="#EF1100" stroke="#EF1100" stroke-miterlimit="10"/>
<path d="M92.8006 59.3197L91.9475 61.5016H91.7669C91.7862 61.3279 91.7862 61.1525 91.7669 60.9788C91.7775 60.9047 91.7637 60.8293 91.7274 60.7639C91.6912 60.6985 91.6345 60.6468 91.5661 60.6168C91.3589 60.5501 91.1411 60.5228 90.9238 60.5363H86.3072V76.0112C86.2809 76.4524 86.3319 76.8947 86.4577 77.3183C86.4921 77.4181 86.5476 77.5093 86.6203 77.5856C86.6931 77.662 86.7814 77.7217 86.8793 77.7608C87.1573 77.8343 87.445 77.8649 87.7323 77.8513V78.0323H82.8046V77.8513C83.4201 77.811 83.8015 77.6904 83.9487 77.4893C84.1512 77.1179 84.2352 76.6933 84.1896 76.2726V60.5565H79.6733C79.3765 60.5354 79.0783 60.5626 78.7901 60.6369C78.6496 60.6838 78.5794 60.8145 78.5794 61.029C78.589 61.1973 78.6228 61.3632 78.6797 61.5217H78.4891L77.636 59.3197H77.8166C77.9012 59.5412 78.0564 59.7286 78.2582 59.8526C78.5557 59.9322 78.8642 59.9627 79.1715 59.9431H91.1446C91.4816 59.9553 91.8188 59.9249 92.1482 59.8526C92.2632 59.809 92.3655 59.7375 92.4461 59.6445C92.5267 59.5514 92.583 59.4398 92.6099 59.3197H92.8006Z" fill="#EF1100" stroke="#EF1100" stroke-miterlimit="10"/>
<path d="M102.756 59.6917C103.893 59.6492 105.026 59.8316 106.092 60.2284C107.158 60.6253 108.136 61.2287 108.969 62.0044C109.752 62.7433 110.371 63.6391 110.786 64.6334C111.201 65.6278 111.403 66.6985 111.377 67.776C111.45 70.5438 110.45 73.2322 108.587 75.2772C107.641 76.2829 106.49 77.0729 105.212 77.5933C103.934 78.1138 102.559 78.3527 101.181 78.2937C100.07 78.3275 98.963 78.1365 97.9272 77.7321C96.8914 77.3278 95.9476 76.7183 95.1522 75.9402C94.3568 75.1621 93.7262 74.2312 93.298 73.2034C92.8698 72.1755 92.6528 71.0718 92.6601 69.958C92.6849 68.3041 93.0757 66.6762 93.8042 65.1919C94.5666 63.5542 95.769 62.1616 97.2767 61.1698C98.9127 60.1348 100.823 59.6196 102.756 59.6917ZM102.686 77.3586C103.977 77.3631 105.249 77.0378 106.379 76.4134C107.559 75.7672 108.543 74.8157 109.23 73.6583C109.884 72.568 110.231 71.3205 110.233 70.0485C110.248 68.3552 109.759 66.6958 108.828 65.2824C107.919 63.8716 106.669 62.7131 105.195 61.9139C103.937 61.176 102.517 60.7615 101.06 60.7073C99.239 60.7201 97.4938 61.4411 96.1928 62.7183C95.4885 63.3492 94.9283 64.125 94.5507 64.9927C94.1731 65.8603 93.987 66.7995 94.0049 67.7459C93.987 70.2568 94.9443 72.6762 96.6745 74.4928C97.4137 75.3735 98.3329 76.085 99.3699 76.5794C100.407 77.0738 101.538 77.3395 102.686 77.3586Z" fill="#EF1100" stroke="#EF1100" stroke-miterlimit="10"/>
<path d="M129.131 60.1945L129.984 62.4569H129.834L129.161 61.7329C128.704 61.263 128.153 60.8948 127.545 60.6523C126.936 60.4098 126.283 60.2983 125.629 60.3252C125.098 60.29 124.566 60.3607 124.063 60.5333C123.56 60.706 123.096 60.977 122.698 61.3307C122.35 61.6595 122.074 62.0572 121.887 62.4986C121.701 62.94 121.608 63.4155 121.614 63.8948C121.602 64.509 121.777 65.1124 122.116 65.6242C122.685 66.2729 123.421 66.7528 124.244 67.0118C126.09 67.6353 127.355 68.1079 128.037 68.4196C128.817 68.7952 129.503 69.3416 130.045 70.0183C130.7 70.8369 131.039 71.8653 130.998 72.9142C130.998 73.3853 130.941 73.8547 130.827 74.3119C130.707 74.7654 130.521 75.199 130.275 75.5989C130.019 76.011 129.712 76.3893 129.362 76.7251C129.044 77.0384 128.678 77.2997 128.278 77.4993C127.724 77.7231 127.138 77.8588 126.542 77.9015C125.749 77.992 125.227 78.0323 124.966 78.0323H120.129V72.7835H120.31C120.248 73.4407 120.325 74.1036 120.536 74.7289C120.747 75.3543 121.087 75.9282 121.534 76.4134C122.621 77.1803 123.943 77.5366 125.267 77.4189C126.519 77.5352 127.769 77.1764 128.77 76.4134C129.147 76.0891 129.45 75.6863 129.656 75.2331C129.862 74.7799 129.967 74.2871 129.964 73.789C129.981 73.2297 129.834 72.6777 129.543 72.2003C129.236 71.7405 128.84 71.3473 128.379 71.044C127.485 70.5404 126.539 70.1358 125.558 69.8373C124.544 69.5219 123.567 69.0936 122.648 68.5603C122.043 68.1478 121.559 67.5823 121.243 66.9213C120.881 66.2326 120.689 65.4674 120.681 64.6891C120.666 64.0352 120.786 63.3854 121.033 62.7799C121.28 62.1744 121.649 61.6264 122.116 61.1698C122.619 60.6893 123.213 60.3152 123.863 60.0699C124.513 59.8245 125.206 59.713 125.9 59.742C126.574 59.7446 127.247 59.8154 127.907 59.9532C128.304 60.0193 128.696 60.11 129.081 60.2246C129.1 60.2178 129.117 60.2075 129.131 60.1945Z" fill="#EF1100" stroke="#EF1100" stroke-miterlimit="10"/>
<path d="M132.473 60.1744V59.9632H143.814V62.4569H143.624C143.522 61.8805 143.315 61.3282 143.011 60.8279C142.64 60.608 142.205 60.5194 141.777 60.5766H135.825V68.691H141.355C141.698 68.7246 142.044 68.6692 142.359 68.5302C142.433 68.483 142.493 68.4173 142.533 68.3397C142.574 68.2621 142.593 68.1752 142.59 68.0877H142.78V69.7871H142.59C142.583 69.6918 142.554 69.5995 142.505 69.5174C142.456 69.4354 142.389 69.3659 142.309 69.3145C142.04 69.2143 141.752 69.1732 141.466 69.1938H135.795V74.7744C135.763 75.3907 135.845 76.0077 136.036 76.5944C136.094 76.7604 136.19 76.9101 136.318 77.0309C136.446 77.1516 136.6 77.2399 136.769 77.2882C137.272 77.402 137.789 77.4493 138.304 77.4289H141.506C142.153 77.4542 142.802 77.4206 143.443 77.3284C143.715 77.2625 143.962 77.1194 144.155 76.9161C144.427 76.5134 144.583 76.044 144.607 75.5587H144.798V78.0323H132.473V77.8513C132.805 77.8443 133.131 77.7618 133.427 77.6099C133.638 77.4792 133.748 77.1273 133.748 76.6044V61.9742C133.774 61.5019 133.716 61.0288 133.577 60.5766C133.477 60.3252 133.116 60.1744 132.473 60.1744Z" fill="#EF1100" stroke="#EF1100" stroke-miterlimit="10"/>
<path d="M146.082 60.1744V59.9632H157.423V62.4569H157.232C157.136 61.8792 156.928 61.3259 156.62 60.8279C156.248 60.608 155.814 60.5194 155.386 60.5766H149.434V68.691H154.964C155.307 68.7246 155.653 68.6692 155.968 68.5302C156.041 68.483 156.101 68.4173 156.142 68.3397C156.182 68.2621 156.202 68.1752 156.199 68.0877H156.389V69.7871H156.199C156.192 69.6918 156.163 69.5995 156.114 69.5174C156.065 69.4354 155.998 69.3659 155.918 69.3145C155.649 69.2143 155.361 69.1732 155.075 69.1938H149.434V74.7744C149.402 75.3907 149.484 76.0077 149.675 76.5944C149.733 76.7604 149.829 76.9101 149.957 77.0309C150.085 77.1516 150.239 77.2399 150.408 77.2882C150.911 77.402 151.428 77.4493 151.943 77.4289H155.125C155.772 77.4542 156.421 77.4206 157.062 77.3284C157.334 77.2625 157.581 77.1194 157.774 76.9161C158.046 76.5134 158.202 76.044 158.226 75.5587H158.417V78.0323H146.082V77.8513C146.414 77.8443 146.74 77.7618 147.036 77.6099C147.246 77.4792 147.357 77.1273 147.357 76.6044V61.9742C147.382 61.5019 147.325 61.0288 147.186 60.5766C147.076 60.3252 146.705 60.1744 146.082 60.1744Z" fill="#EF1100" stroke="#EF1100" stroke-miterlimit="10"/>
<path d="M177.495 59.9632H180.205V60.1543C179.908 60.1611 179.618 60.2442 179.362 60.3956C179.053 60.6263 178.794 60.917 178.599 61.2503L174.194 67.947V76.2223C174.14 76.678 174.231 77.1389 174.454 77.5396C174.611 77.6648 174.792 77.757 174.985 77.8106C175.178 77.8641 175.38 77.878 175.579 77.8513V78.0323H170.751V77.8513C171.674 77.9116 172.136 77.5395 172.136 76.7553V76.2424V68.6106L167.69 61.3307C167.228 60.5565 166.687 60.1744 166.135 60.2045V60.0135H170.4V60.2045C169.998 60.2045 169.798 60.3554 169.798 60.657C169.844 60.9161 169.951 61.1607 170.109 61.3709L173.742 67.404L177.756 61.3709C177.857 61.2629 177.941 61.141 178.007 61.0089C178.074 60.8978 178.118 60.7749 178.138 60.647C178.138 60.3755 177.967 60.2447 177.616 60.2447H177.536L177.495 59.9632Z" fill="#EF1100" stroke="#EF1100" stroke-miterlimit="10"/>
<path d="M190.051 59.6917C191.186 59.6483 192.318 59.8303 193.382 60.2272C194.447 60.6242 195.422 61.2281 196.253 62.0044C197.036 62.7433 197.655 63.6391 198.07 64.6334C198.485 65.6278 198.687 66.6985 198.662 67.776C198.74 70.5446 197.739 73.2349 195.872 75.2771C194.927 76.2845 193.776 77.0755 192.497 77.5961C191.219 78.1168 189.843 78.3547 188.465 78.2937C187.354 78.3275 186.247 78.1365 185.211 77.7321C184.176 77.3278 183.232 76.7183 182.436 75.9402C181.641 75.162 181.01 74.2312 180.582 73.2034C180.154 72.1755 179.937 71.0718 179.944 69.958C179.973 68.3034 180.367 66.6756 181.098 65.1919C181.895 63.5004 183.165 62.0777 184.755 61.0974C186.345 60.1172 188.185 59.6218 190.051 59.6716V59.6917ZM189.97 77.3586C191.272 77.3705 192.555 77.0449 193.694 76.4134C194.875 75.77 195.86 74.8179 196.544 73.6583C197.204 72.5704 197.551 71.3213 197.548 70.0485C197.566 68.3561 197.081 66.6967 196.153 65.2824C195.238 63.872 193.986 62.7138 192.51 61.9139C191.253 61.1737 189.832 60.759 188.375 60.7073C186.557 60.7227 184.816 61.4435 183.517 62.7183C182.811 63.3479 182.25 64.1235 181.872 64.9914C181.495 65.8594 181.309 66.7992 181.329 67.7459C181.311 70.2568 182.269 72.6762 183.999 74.4928C184.731 75.3714 185.643 76.0821 186.673 76.5765C187.704 77.0709 188.828 77.3377 189.97 77.3586Z" fill="#EF1100" stroke="#EF1100" stroke-miterlimit="10"/>
<path d="M217.279 78.0323H213.856V75.247C213.099 76.1608 212.149 76.8953 211.075 77.3977C210.001 77.9001 208.829 78.1581 207.644 78.1529C206.872 78.1939 206.1 78.0817 205.371 77.8229C204.643 77.5641 203.972 77.1637 203.399 76.6446C202.859 76.0987 202.439 75.445 202.168 74.7261C201.896 74.0072 201.779 73.2391 201.823 72.4718V61.6625C201.872 61.2331 201.792 60.7988 201.592 60.4157C201.442 60.2347 201.07 60.1543 200.498 60.1543V59.9632H205.286V60.1543C204.916 60.1231 204.545 60.2037 204.222 60.3855C204.011 60.5464 203.911 60.9285 203.911 61.5217V71.4461C203.911 73.5276 204.392 75.0057 205.356 75.8905C206.251 76.7473 207.44 77.2262 208.678 77.2278C209.684 77.2054 210.672 76.956 211.568 76.4981C212.465 76.0403 213.247 75.3858 213.856 74.5833V62.3362C213.938 61.6856 213.84 61.0252 213.575 60.4257C213.455 60.3204 213.315 60.2404 213.163 60.1903C213.012 60.1402 212.851 60.1211 212.692 60.1341H212.522V59.9431H217.279V60.1341C216.885 60.1055 216.494 60.208 216.165 60.4257C215.985 60.6987 215.907 61.0261 215.944 61.3508V76.0816C215.923 76.4655 215.95 76.8505 216.024 77.2278C216.086 77.4118 216.211 77.5682 216.375 77.6703C216.653 77.8155 216.967 77.8783 217.279 77.8513V78.0323Z" fill="#EF1100" stroke="#EF1100" stroke-miterlimit="10"/>
<path d="M239.86 69.0229H229.954V75.9609C229.928 76.3792 229.962 76.799 230.054 77.2077C230.118 77.3937 230.237 77.5553 230.396 77.6703C230.663 77.8152 230.966 77.8782 231.269 77.8513V78.0323H226.602V77.8513C227.455 77.9116 227.877 77.4893 227.877 76.6145V62.0848C227.921 61.5536 227.852 61.0191 227.676 60.5162C227.545 60.295 227.184 60.1744 226.602 60.1543V59.9632H231.269V60.1543C230.913 60.1497 230.564 60.2512 230.265 60.4459C230.156 60.5871 230.075 60.7487 230.029 60.9213C229.982 61.0939 229.971 61.2741 229.994 61.4514V68.49H239.86V62.0547C239.895 61.5443 239.83 61.032 239.669 60.5464C239.549 60.285 239.214 60.1543 238.665 60.1543V59.9632H243.272V60.1543C242.996 60.1379 242.719 60.179 242.459 60.2749C242.288 60.3551 242.154 60.4995 242.088 60.6771C242.005 61.1313 241.974 61.5935 241.997 62.0547V75.9106C241.974 76.3551 242.005 76.8007 242.088 77.2379C242.158 77.4147 242.276 77.5681 242.429 77.6803C242.688 77.8156 242.981 77.8748 243.272 77.8513V78.0323H238.665V77.8513C238.845 77.8772 239.029 77.8627 239.202 77.8087C239.376 77.7548 239.535 77.6629 239.669 77.5396C239.899 77.0224 239.985 76.4528 239.92 75.8905L239.86 69.0229Z" fill="#EF1100" stroke="#EF1100" stroke-miterlimit="10"/>
<path d="M245.139 60.1744V59.9632H256.47V62.4569H256.289C256.188 61.8805 255.98 61.3282 255.677 60.8279C255.305 60.608 254.87 60.5194 254.442 60.5766H248.491V68.691H254.011C254.354 68.7224 254.699 68.667 255.014 68.5302C255.086 68.4809 255.145 68.4148 255.185 68.3377C255.225 68.2606 255.246 68.1748 255.245 68.0877H255.426V69.7871H255.245C255.237 69.6911 255.206 69.5985 255.155 69.5165C255.105 69.4345 255.036 69.3654 254.954 69.3145C254.689 69.2139 254.404 69.1727 254.121 69.1938H248.491V74.7744C248.461 75.3899 248.539 76.006 248.722 76.5944C248.781 76.7611 248.88 76.9112 249.009 77.0319C249.138 77.1526 249.294 77.2405 249.465 77.2882C249.968 77.402 250.484 77.4493 251 77.4289H254.181C254.829 77.4538 255.477 77.4201 256.118 77.3284C256.39 77.2599 256.636 77.1172 256.831 76.9161C257.093 76.509 257.249 76.0421 257.283 75.5587H257.463V78.0323H245.139V77.8513C245.468 77.8442 245.79 77.7617 246.082 77.6099C246.303 77.4792 246.414 77.1273 246.414 76.6044V61.9742C246.439 61.5019 246.381 61.0288 246.243 60.5766C246.122 60.3252 245.761 60.1744 245.139 60.1744Z" fill="#EF1100" stroke="#EF1100" stroke-miterlimit="10"/>
<path d="M258.728 60.1543V59.9632H263.846C265.141 59.9632 266.084 59.9632 266.656 60.0537C267.285 60.1191 267.893 60.3143 268.443 60.6268C269.018 60.9195 269.496 61.3738 269.818 61.934C270.141 62.5535 270.3 63.2461 270.279 63.945C270.274 64.8827 269.987 65.7971 269.456 66.5694C268.857 67.4449 268.059 68.1652 267.128 68.6709L268.403 70.682C268.674 71.1747 269.406 72.2506 270.611 73.9097C271.341 75.0772 272.28 76.0998 273.381 76.9262C273.954 77.2738 274.608 77.4645 275.277 77.4792C276.023 77.4346 276.744 77.1916 277.365 76.7754L277.435 77.0267C276.343 77.8601 274.993 78.2835 273.621 78.2233C272.643 78.2459 271.69 77.9178 270.932 77.2982C269.443 75.7463 268.128 74.0369 267.008 72.2003C267.008 72.2003 267.008 72.2003 267.008 72.15L265.171 69.3748L263.565 69.4251H262.11V76.3329C262.082 76.7431 262.154 77.1539 262.321 77.5295C262.471 77.7708 262.823 77.8915 263.385 77.8915V78.0725H258.728V77.8915C259.31 77.8915 259.671 77.7407 259.812 77.5194C259.991 77.0944 260.063 76.6317 260.022 76.1721V61.7832C260.035 61.3898 259.974 60.9975 259.842 60.6268C259.721 60.3252 259.35 60.1543 258.728 60.1543ZM262.11 60.4459V68.9223H263.997C265.189 69.0333 266.378 68.6724 267.309 67.9168C267.67 67.5543 267.952 67.1203 268.137 66.6425C268.322 66.1647 268.406 65.6535 268.383 65.1416C268.373 64.0041 268.004 62.8989 267.329 61.9843C266.616 60.9788 265.372 60.4961 263.585 60.4961L262.11 60.4459Z" fill="#EF1100" stroke="#EF1100" stroke-miterlimit="10"/>
<path d="M278.579 60.1744V59.9632H289.92V62.4569H289.74C289.637 61.8794 289.425 61.3267 289.117 60.8279C288.749 60.608 288.318 60.5194 287.893 60.5766H281.941V68.691H287.461C287.804 68.7211 288.149 68.6658 288.465 68.5302C288.535 68.4797 288.593 68.4134 288.633 68.3365C288.673 68.2597 288.695 68.1745 288.696 68.0877H288.876V69.7871H288.696C288.687 69.6911 288.656 69.5985 288.606 69.5165C288.555 69.4345 288.486 69.3654 288.405 69.3145C288.136 69.2143 287.848 69.1732 287.562 69.1938H281.901V74.7744C281.866 75.3901 281.944 76.007 282.132 76.5944C282.19 76.762 282.288 76.9129 282.417 77.0338C282.547 77.1547 282.704 77.2421 282.875 77.2882C283.375 77.4027 283.888 77.45 284.4 77.4289H287.582C288.229 77.4542 288.877 77.4206 289.519 77.3284C289.791 77.2625 290.038 77.1194 290.231 76.9161C290.503 76.5126 290.662 76.0442 290.693 75.5587H290.874V78.0323H278.579V77.8513C278.911 77.8443 279.237 77.7618 279.533 77.6099C279.754 77.4792 279.854 77.1273 279.854 76.6044V61.9742C279.884 61.5018 279.826 61.0278 279.683 60.5766C279.573 60.3252 279.202 60.1744 278.579 60.1744Z" fill="#EF1100" stroke="#EF1100" stroke-miterlimit="10"/>
</svg>
