<svg width="50" height="42" viewBox="0 0 50 42" fill="none" xmlns="http://www.w3.org/2000/svg">
<path fill-rule="evenodd" clip-rule="evenodd" d="M37.9199 40.85C38.2415 41.081 38.6149 41.2292 39.0074 41.2815C39.3998 41.3338 39.7991 41.2887 40.1699 41.15C40.5377 41.0095 40.8647 40.7796 41.1213 40.481C41.378 40.1825 41.5562 39.8247 41.6399 39.44C43.4099 31.11 47.6399 10.17 49.2999 2.62001C49.3565 2.33938 49.3372 2.04874 49.244 1.77805C49.1508 1.50736 48.9872 1.2664 48.7699 1.08001C48.5484 0.894893 48.282 0.77152 47.9975 0.722356C47.7131 0.673192 47.4207 0.699978 47.1499 0.800009C38.6299 3.93001 12.4199 13.8 1.70991 17.8C1.50646 17.8814 1.32113 18.0022 1.16461 18.1555C1.00808 18.3089 0.883467 18.4917 0.797941 18.6934C0.712414 18.8951 0.667671 19.1118 0.666293 19.3309C0.664914 19.55 0.706926 19.7672 0.789907 19.97C0.876192 20.198 1.00997 20.4051 1.18238 20.5775C1.35478 20.7499 1.56187 20.8837 1.78991 20.97C6.58991 22.4 12.8999 24.4 12.8999 24.4C12.8999 24.4 15.8399 33.31 17.3899 37.83C17.5239 38.2716 17.8277 38.6419 18.2347 38.8594C18.6416 39.0769 19.1183 39.1239 19.5599 38.99C19.8198 38.9115 20.0567 38.7707 20.2499 38.58L26.4999 32.66C26.4999 32.66 33.8199 37.92 37.9199 40.85ZM15.5699 23.23L18.9999 34.48L19.7599 27.36L40.4199 8.71001C40.5151 8.61746 40.5737 8.49358 40.5847 8.36124C40.5957 8.2289 40.5585 8.09704 40.4799 7.99001C40.394 7.87548 40.2681 7.79749 40.1273 7.77155C39.9864 7.74561 39.841 7.77362 39.7199 7.85001L15.5699 23.23Z" fill="black"/>
</svg>
