<svg width="60" height="350" viewBox="0 0 60 350" fill="none" xmlns="http://www.w3.org/2000/svg">
<path d="M1.05176 261.947C1.05176 235.451 9.69898 221.213 16.6428 209.692C22.6372 199.789 27.3751 192.031 27.3751 175C27.3751 157.969 22.6372 150.191 16.6428 140.299C9.69898 128.825 1.05176 114.539 1.05176 88.0431C1.05176 61.5468 9.69898 47.3094 16.6428 35.7972C22.6372 25.895 27.3751 18.078 27.3751 1.09595H58.9481C58.9481 27.5923 50.3009 41.8297 43.3571 53.3515C37.3627 63.244 32.6341 71.061 32.6341 88.0431C32.6341 105.025 37.3627 112.842 43.3571 122.744C50.3009 134.218 58.9481 148.504 58.9481 175C58.9481 201.496 50.3009 215.734 43.3571 227.246C37.3627 237.148 32.6341 244.965 32.6341 261.947C32.6341 278.929 37.3627 286.746 43.3571 296.648C50.2637 308.122 58.9481 322.408 58.9481 348.904H27.3751C27.3751 331.922 22.6372 324.095 16.6428 314.203C9.69898 302.72 1.05176 288.444 1.05176 261.947Z" stroke="#D62E1D" stroke-width="2.26" stroke-miterlimit="10"/>
</svg>
