<svg width="38" height="31" viewBox="0 0 38 31" fill="none" xmlns="http://www.w3.org/2000/svg">
<path d="M35.758 0.00228071C35.3371 0.0188454 34.9274 0.123931 34.5579 0.256652C34.1922 0.388486 32.0867 1.19459 28.9775 2.38701C25.8684 3.57943 21.8267 5.13222 17.8202 6.67196C9.80735 9.75143 1.93332 12.7814 1.93332 12.7814L1.99071 12.7617C1.99071 12.7617 1.51547 12.9042 1.03364 13.2054C0.79273 13.3559 0.533546 13.5503 0.32133 13.8337C0.109114 14.1171 -0.0460295 14.5188 0.0124367 14.9436C0.217797 16.4357 1.94176 16.8589 1.94176 16.8589L1.94851 16.862L9.64215 19.224C9.83831 19.811 11.9757 26.2101 12.4458 27.5652C12.7055 28.3145 12.9485 28.7467 13.202 29.0415C13.3289 29.189 13.4618 29.3032 13.6088 29.3867C13.6672 29.4199 13.7286 29.4448 13.7894 29.467C13.7907 29.4675 13.7915 29.4664 13.7928 29.467C13.8003 29.4699 13.8073 29.4702 13.8148 29.473L13.7945 29.4685C13.8086 29.4736 13.8226 29.4822 13.8367 29.4866C13.8641 29.4953 13.8809 29.495 13.916 29.5018C14.7971 29.7777 15.5263 29.2656 15.5263 29.2656L15.5567 29.2444L20.283 25.3122L27.953 30.6767L28.0492 30.7161C29.3917 31.2508 30.6058 30.9525 31.2782 30.4617C31.9506 29.971 32.215 29.3383 32.215 29.3383L32.2437 29.2716L37.8798 2.92149C38.024 2.33198 38.0445 1.82242 37.9085 1.36196C37.7724 0.901496 37.442 0.501223 37.0273 0.279364C36.6127 0.0575046 36.1789 -0.014284 35.758 0.00228071ZM35.8036 1.57847C35.9745 1.57137 36.1012 1.5889 36.1412 1.61027C36.1811 1.63164 36.199 1.62883 36.2374 1.75865C36.2757 1.88848 36.2965 2.16193 36.1918 2.5899L36.1884 2.59899L30.5845 28.7962C30.5712 28.8226 30.4544 29.0649 30.1878 29.2595C29.9158 29.4581 29.6133 29.613 28.8104 29.311L20.423 23.4438L20.1867 23.2773L20.1817 23.2818L17.6734 21.5936L31.7694 6.71738C31.8777 6.60337 31.9469 6.46365 31.9686 6.31513C31.9902 6.1666 31.9635 6.01562 31.8915 5.88044C31.8196 5.74527 31.7055 5.63168 31.5631 5.55343C31.4207 5.47517 31.2561 5.43559 31.0892 5.43947C30.926 5.44327 30.7674 5.48841 30.6317 5.56968L10.2346 17.7674L2.52916 15.4008C2.52916 15.4008 1.76401 15.0189 1.72739 14.7528C1.72536 14.738 1.71632 14.7514 1.75608 14.6983C1.79584 14.6452 1.89579 14.5555 2.02109 14.4772C2.2717 14.3206 2.55786 14.2259 2.55786 14.2259L2.58655 14.2168L2.61525 14.2062C2.61525 14.2062 10.4897 11.1761 18.5022 8.09674C22.5084 6.55708 26.5494 5.00544 29.6578 3.81331C32.7654 2.62149 35.0109 1.76363 35.201 1.69506C35.4175 1.61731 35.6326 1.58558 35.8036 1.57847ZM26.4558 9.93033L15.766 21.212L15.7609 21.2165C15.7443 21.2346 15.7285 21.2533 15.7137 21.2726C15.6967 21.2935 15.681 21.3153 15.6664 21.3377C15.6064 21.4291 15.5679 21.5306 15.5533 21.636C15.5533 21.638 15.5533 21.64 15.5533 21.642L14.1608 27.2594C14.1376 27.1987 14.1214 27.1765 14.0966 27.1049V27.1034C13.6543 25.8286 11.6378 19.7936 11.3588 18.959L26.4558 9.93033ZM16.9729 23.0607L18.8938 24.3538L16.0715 26.7007L16.9729 23.0607Z" fill="#7904A3"/>
</svg>
