<svg width="38" height="40" viewBox="0 0 38 40" fill="none" xmlns="http://www.w3.org/2000/svg">
<path d="M4.52381 0C2.03615 0 0 2.14332 0 4.7619V35.2381C0 37.8567 2.03615 40 4.52381 40H33.4762C35.9638 40 38 37.8567 38 35.2381V4.7619C38 2.14332 35.9638 0 33.4762 0H4.52381ZM4.52381 1.90476H33.4762C34.9858 1.90476 36.1905 3.17287 36.1905 4.7619V35.2381C36.1905 36.8271 34.9858 38.0952 33.4762 38.0952H4.52381C3.01423 38.0952 1.80952 36.8271 1.80952 35.2381V4.7619C1.80952 3.17287 3.01423 1.90476 4.52381 1.90476ZM17.5492 11.4211C16.5924 11.4188 15.7393 11.4751 14.9763 11.8694C14.9757 11.87 14.9751 11.8707 14.9745 11.8713C14.6025 12.0642 14.3404 12.3092 14.1316 12.6004C14.0272 12.7461 13.9203 12.8768 13.863 13.2087C13.8344 13.3747 13.8183 13.6436 13.9832 13.9342C14.1481 14.2247 14.4796 14.3899 14.6918 14.4196C14.8392 14.4403 15.1718 14.5893 15.2025 14.6336C15.2031 14.6348 15.2036 14.636 15.2042 14.6373C15.2045 14.6376 15.3332 14.9916 15.3703 15.3069C15.4075 15.6223 15.4057 15.878 15.4057 15.878C15.4053 15.9034 15.4059 15.9289 15.4075 15.9542C15.4075 15.9542 15.4599 16.7805 15.4251 17.6339C15.4113 17.9741 15.3695 18.2767 15.3262 18.5472C15.004 18.1728 14.5292 17.4947 13.8436 16.2444C13.0829 14.8566 12.4776 13.6124 12.4776 13.6124C12.4458 13.5039 12.3334 13.1667 11.8944 12.8274C11.4146 12.4551 10.9508 12.3996 10.9508 12.3996C10.8926 12.3873 10.8334 12.381 10.7741 12.381L7.20805 12.3828C7.20805 12.3828 6.99424 12.3698 6.738 12.407C6.48176 12.4442 6.09591 12.4745 5.72368 12.939C5.72309 12.9396 5.7225 12.9402 5.72191 12.9408C5.38924 13.3593 5.40937 13.8217 5.44978 14.083C5.49018 14.3442 5.58054 14.5424 5.58054 14.5424C5.58229 14.5461 5.58405 14.5499 5.58584 14.5536C5.58584 14.5536 8.5027 21.009 11.799 24.8103C14.1927 27.5703 16.6496 27.6172 18.6766 27.6172H20.1893C20.5754 27.6172 20.9248 27.6013 21.3114 27.3642C21.698 27.1271 21.9581 26.5499 21.9581 26.1496C21.9581 25.73 22.0177 25.4002 22.0907 25.2307C22.142 25.1114 22.1827 25.0685 22.2462 25.0335C22.2596 25.0424 22.2509 25.0372 22.2886 25.0651C22.4392 25.1766 22.6879 25.4308 22.9583 25.7478C23.4992 26.3818 24.113 27.2515 24.9375 27.8478C25.5281 28.2755 26.0861 28.4653 26.5102 28.5342C26.776 28.5774 26.9824 28.5691 27.1287 28.5565L30.5074 28.5714C30.5275 28.5715 30.5475 28.5709 30.5675 28.5696C30.5675 28.5696 31.1497 28.5767 31.755 28.1957C32.0577 28.0051 32.4147 27.6439 32.5308 27.1168C32.6469 26.5897 32.501 26.0436 32.2162 25.545C32.2162 25.5444 32.2162 25.5438 32.2162 25.5432C32.2657 25.6294 32.1715 25.4521 32.0749 25.2865C31.9783 25.1208 31.838 24.8975 31.6366 24.6205C31.2339 24.0666 30.5888 23.2913 29.5461 22.2693C29.5455 22.2693 29.545 22.2693 29.5444 22.2693C29.0148 21.7507 28.6572 21.3835 28.5106 21.1793C28.364 20.9752 28.4121 21.0824 28.4222 21.0305C28.4425 20.9267 29.0781 19.9616 30.3714 18.1436C31.1575 17.037 31.7092 16.2063 32.0731 15.5153C32.437 14.8242 32.6994 14.2258 32.5166 13.4933C32.5161 13.4921 32.5155 13.4908 32.5149 13.4896C32.4338 13.168 32.2122 12.8717 31.9847 12.7102C31.7573 12.5487 31.5416 12.4856 31.3486 12.4461C30.9626 12.367 30.6258 12.381 30.3131 12.381C29.6573 12.381 26.7479 12.4051 26.5085 12.4051C26.2255 12.4051 25.7577 12.5406 25.5507 12.6711C25.0304 13.0007 24.881 13.4338 24.881 13.4338C24.8715 13.4521 24.8627 13.4707 24.8544 13.4896C24.8544 13.4896 24.2543 14.8905 23.4814 16.2742C22.6984 17.6777 22.12 18.3472 21.7708 18.657C21.7612 18.6019 21.7629 18.6466 21.7567 18.5696C21.7254 18.1776 21.7602 17.636 21.7602 17.1075C21.7602 15.6842 21.8748 14.688 21.8132 13.8077C21.7824 13.3675 21.705 12.9136 21.4298 12.4963C21.1546 12.079 20.6966 11.8078 20.244 11.6927C19.9725 11.6238 19.6629 11.4444 18.5423 11.4323C18.5417 11.4323 18.5411 11.4323 18.5406 11.4323C18.1979 11.4287 17.8681 11.4219 17.5492 11.4211ZM18.5229 13.3371C19.5145 13.3478 19.2675 13.4052 19.8182 13.5454C19.989 13.5888 19.9476 13.5886 19.9436 13.5826C19.9397 13.5766 19.9898 13.6748 20.009 13.949C20.0474 14.4975 19.9507 15.588 19.9507 17.1075C19.9507 17.5219 19.9032 18.1132 19.9525 18.7295C20.0017 19.3459 20.1469 20.137 20.8466 20.6138C21.1783 20.8401 21.5634 20.8544 21.8928 20.7682C22.2221 20.682 22.5209 20.5025 22.8346 20.2381C23.4621 19.7092 24.162 18.8166 25.0418 17.2396C25.864 15.7675 26.4621 14.3657 26.482 14.3192C26.4858 14.3159 26.4898 14.3137 26.4943 14.3099C26.5056 14.31 26.4939 14.3099 26.5085 14.3099C26.8462 14.3099 29.7021 14.2857 30.3131 14.2857C30.4557 14.2857 30.5076 14.2948 30.6205 14.2987C30.5898 14.4066 30.624 14.3378 30.4898 14.5926C30.2083 15.1271 29.6897 15.9214 28.9223 17.0015C27.6614 18.774 26.8799 19.4685 26.6498 20.6455C26.5348 21.2339 26.7504 21.8862 27.0669 22.327C27.3833 22.7678 27.7828 23.1455 28.3127 23.6644C29.294 24.6262 29.8696 25.325 30.2 25.7794C30.3651 26.0066 30.4692 26.1707 30.5339 26.2816C30.5986 26.3926 30.5827 26.3809 30.6665 26.5272C30.7217 26.6245 30.7013 26.5651 30.7107 26.5941C30.6022 26.6263 30.4707 26.6651 30.4633 26.6667L27.1358 26.6518C27.0759 26.6517 27.0161 26.658 26.9573 26.6704C26.9573 26.6704 26.9656 26.6807 26.7877 26.6518C26.6097 26.6229 26.3266 26.5418 25.9624 26.2779C25.5229 25.96 24.9077 25.1821 24.3049 24.4754C24.0035 24.1221 23.7029 23.7828 23.3294 23.5063C22.956 23.2299 22.3971 22.9699 21.7938 23.1696C21.1675 23.3767 20.68 23.8911 20.442 24.4438C20.2648 24.8552 20.2504 25.2849 20.2228 25.7124C20.1928 25.7148 20.2274 25.7124 20.1893 25.7124H18.6766C16.6213 25.7124 15.1619 25.8621 13.135 23.5249C10.4085 20.3808 7.91044 15.1495 7.50316 14.2876L10.6416 14.2857C10.6967 14.308 10.8148 14.3547 10.8218 14.3601C10.823 14.3614 10.8242 14.3626 10.8253 14.3638C10.7106 14.2756 10.8306 14.3992 10.8306 14.3992C10.8417 14.4277 10.8541 14.4556 10.8677 14.4829C10.8677 14.4829 11.4896 15.7617 12.2761 17.1968C13.0476 18.6036 13.6098 19.4825 14.1528 20.0632C14.4243 20.3536 14.6983 20.5865 15.0646 20.718C15.4309 20.8495 15.9039 20.8013 16.2221 20.6176C16.8721 20.243 16.9594 19.6906 17.065 19.2076C17.1707 18.7239 17.2128 18.2087 17.2329 17.7158C17.2718 16.759 17.2168 15.931 17.2134 15.8798C17.2136 15.8619 17.2178 15.5166 17.1657 15.0744C17.1124 14.6216 17.053 14.068 16.6639 13.51L16.6621 13.5082C16.6594 13.5043 16.656 13.5046 16.6533 13.5007C17.1679 13.4231 17.6082 13.3274 18.5229 13.3371ZM26.5049 14.2708L26.4926 14.3006C26.4906 14.3017 26.4913 14.2992 26.489 14.3006C26.4929 14.2929 26.5049 14.2708 26.5049 14.2708Z" fill="#7904A3"/>
</svg>
